<svg width="220" height="148" viewBox="0 0 220 148" fill="none" xmlns="http://www.w3.org/2000/svg">
<path d="M108.51 112.979V102.697H111.049L113.895 109.607H114.023L116.876 102.697H119.408V112.979H117.414V106.1H117.299L114.683 112.383H113.254L110.632 106.1H110.517V112.979H108.523H108.51Z" fill="#9FC7FB"/>
<path d="M130.639 110.53H127.023L126.235 112.979H124.075L127.645 102.696H130.177L133.748 112.979H131.421L130.645 110.53H130.639ZM127.491 108.869H130.184L128.908 104.837H128.78L127.491 108.869Z" fill="#9FC7FB"/>
<path d="M140.569 112.979H138.415V102.696H142.735C143.3 102.696 143.806 102.773 144.261 102.927C144.71 103.081 145.094 103.299 145.409 103.581C145.723 103.863 145.966 104.209 146.133 104.619C146.3 105.023 146.383 105.485 146.383 105.998C146.383 106.325 146.344 106.639 146.261 106.94C146.178 107.241 146.056 107.517 145.896 107.773C145.735 108.03 145.543 108.254 145.306 108.446C145.075 108.639 144.812 108.799 144.517 108.914L146.684 112.979H144.248L142.332 109.254H140.569V112.979ZM140.569 107.6H142.46C143.005 107.6 143.428 107.466 143.729 107.19C144.03 106.914 144.178 106.53 144.178 106.03C144.178 105.786 144.139 105.568 144.056 105.369C143.973 105.171 143.857 105.004 143.71 104.869C143.562 104.735 143.376 104.626 143.158 104.555C142.941 104.485 142.703 104.446 142.434 104.446H140.569V107.613V107.6Z" fill="#9FC7FB"/>
<path d="M151.466 112.979V102.696H153.62V107.28H153.748L157.543 102.696H159.935L156.184 107.209L160.197 112.979H157.62L154.633 108.677L153.614 109.882V112.985H151.46L151.466 112.979Z" fill="#9FC7FB"/>
<path d="M171.55 112.979H164.736V102.696H171.55V104.536H166.89V106.94H171.287V108.645H166.89V111.145H171.55V112.985V112.979Z" fill="#9FC7FB"/>
<path d="M179.23 112.979V104.536H176.146V102.696H184.467V104.536H181.384V112.979H179.23Z" fill="#9FC7FB"/>
<path d="M189.288 112.979V102.696H191.442V112.979H189.288Z" fill="#9FC7FB"/>
<path d="M196.852 112.979V102.696H198.647L203.378 109.1H203.506V102.696H205.564V112.979H203.782L199.038 106.543H198.91V112.979H196.852Z" fill="#9FC7FB"/>
<path d="M219.699 110.645C219.487 111.196 219.186 111.664 218.788 112.049C218.391 112.434 217.917 112.728 217.352 112.934C216.788 113.139 216.154 113.241 215.455 113.241C214.692 113.241 214.006 113.119 213.397 112.869C212.788 112.619 212.275 112.26 211.846 111.799C211.423 111.331 211.096 110.767 210.865 110.094C210.634 109.427 210.525 108.671 210.525 107.831C210.525 106.991 210.641 106.26 210.865 105.587C211.089 104.914 211.416 104.356 211.84 103.889C212.263 103.421 212.775 103.062 213.378 102.812C213.981 102.562 214.654 102.433 215.404 102.433C216.013 102.433 216.577 102.517 217.09 102.683C217.609 102.85 218.064 103.094 218.455 103.401C218.846 103.709 219.173 104.081 219.423 104.523C219.673 104.959 219.84 105.446 219.917 105.978H217.782C217.622 105.453 217.333 105.049 216.923 104.76C216.513 104.472 216.006 104.331 215.404 104.331C214.993 104.331 214.615 104.408 214.282 104.568C213.949 104.728 213.666 104.959 213.436 105.254C213.205 105.555 213.025 105.921 212.904 106.35C212.782 106.78 212.718 107.267 212.718 107.805C212.718 108.344 212.782 108.85 212.91 109.286C213.038 109.722 213.224 110.094 213.461 110.401C213.699 110.709 213.993 110.94 214.333 111.1C214.673 111.26 215.058 111.344 215.481 111.344C215.833 111.344 216.154 111.293 216.449 111.196C216.743 111.1 216.993 110.959 217.205 110.773C217.417 110.594 217.583 110.376 217.705 110.119C217.827 109.863 217.897 109.581 217.904 109.273V109.087H215.679V107.472H220V108.786C220 109.472 219.897 110.094 219.686 110.645H219.699Z" fill="#9FC7FB"/>
<path d="M115.075 128.042H111.459L110.671 130.491H108.51L112.081 120.208H114.613L118.184 130.491H115.857L115.081 128.042H115.075ZM111.927 126.382H114.619L113.344 122.35H113.216L111.927 126.382Z" fill="#9FC7FB"/>
<path d="M131.575 128.158C131.363 128.709 131.062 129.177 130.665 129.561C130.267 129.946 129.793 130.241 129.229 130.446C128.665 130.651 128.03 130.754 127.331 130.754C126.568 130.754 125.882 130.632 125.273 130.382C124.664 130.132 124.152 129.773 123.722 129.311C123.299 128.843 122.972 128.279 122.741 127.606C122.511 126.94 122.402 126.183 122.402 125.343C122.402 124.504 122.517 123.773 122.741 123.1C122.966 122.427 123.293 121.869 123.716 121.401C124.139 120.933 124.652 120.574 125.254 120.324C125.857 120.074 126.53 119.946 127.28 119.946C127.889 119.946 128.453 120.029 128.966 120.196C129.485 120.362 129.94 120.606 130.331 120.914C130.722 121.221 131.049 121.593 131.299 122.036C131.549 122.472 131.716 122.959 131.793 123.491H129.658C129.498 122.965 129.209 122.561 128.799 122.273C128.389 121.984 127.882 121.843 127.28 121.843C126.87 121.843 126.491 121.92 126.158 122.08C125.825 122.241 125.543 122.472 125.312 122.766C125.081 123.068 124.902 123.433 124.78 123.863C124.658 124.292 124.594 124.779 124.594 125.318C124.594 125.856 124.658 126.363 124.786 126.799C124.914 127.234 125.1 127.606 125.338 127.914C125.575 128.222 125.87 128.452 126.209 128.613C126.549 128.773 126.934 128.856 127.357 128.856C127.709 128.856 128.03 128.805 128.325 128.709C128.62 128.613 128.87 128.472 129.081 128.286C129.293 128.106 129.459 127.888 129.581 127.632C129.703 127.375 129.774 127.093 129.78 126.786V126.6H127.556V124.984H131.876V126.299C131.876 126.984 131.774 127.606 131.562 128.158H131.575Z" fill="#9FC7FB"/>
<path d="M143.678 130.491H136.864V120.209H143.678V122.049H139.017V124.452H143.415V126.158H139.017V128.658H143.678V130.497V130.491Z" fill="#9FC7FB"/>
<path d="M148.864 130.491V120.209H150.659L155.39 126.613H155.518V120.209H157.575V130.491H155.793L151.05 124.055H150.922V130.491H148.864Z" fill="#9FC7FB"/>
<path d="M167.358 130.754C166.614 130.754 165.941 130.633 165.345 130.383C164.749 130.133 164.242 129.774 163.826 129.312C163.409 128.844 163.088 128.28 162.87 127.607C162.646 126.94 162.537 126.184 162.537 125.35C162.537 124.517 162.646 123.761 162.87 123.094C163.095 122.427 163.415 121.863 163.826 121.395C164.242 120.927 164.749 120.575 165.345 120.325C165.941 120.075 166.614 119.953 167.358 119.953C167.967 119.953 168.531 120.049 169.063 120.241C169.589 120.434 170.05 120.703 170.448 121.043C170.845 121.382 171.159 121.793 171.403 122.261C171.646 122.729 171.787 123.248 171.826 123.806H169.73C169.678 123.511 169.582 123.241 169.448 122.998C169.307 122.754 169.14 122.549 168.928 122.376C168.723 122.203 168.486 122.075 168.217 121.979C167.947 121.889 167.665 121.838 167.364 121.838C166.96 121.838 166.595 121.921 166.274 122.081C165.954 122.241 165.678 122.479 165.447 122.78C165.217 123.081 165.044 123.453 164.922 123.882C164.8 124.312 164.742 124.799 164.742 125.344C164.742 125.889 164.8 126.376 164.922 126.806C165.044 127.242 165.217 127.607 165.447 127.908C165.678 128.209 165.954 128.44 166.274 128.607C166.595 128.774 166.96 128.851 167.371 128.851C167.678 128.851 167.967 128.806 168.23 128.716C168.492 128.626 168.73 128.504 168.935 128.344C169.14 128.184 169.313 127.985 169.448 127.761C169.582 127.53 169.678 127.274 169.73 126.991H171.826C171.781 127.549 171.64 128.056 171.403 128.517C171.166 128.979 170.845 129.376 170.454 129.703C170.063 130.036 169.601 130.293 169.076 130.472C168.55 130.658 167.973 130.748 167.358 130.748V130.754Z" fill="#9FC7FB"/>
<path d="M179.576 130.491V126.709L175.992 120.209H178.319L180.582 124.51H180.71L182.967 120.209H185.294L181.717 126.709V130.491H179.563H179.576Z" fill="#9FC7FB"/>
<path d="M201.667 0L201.115 1.12748L158.362 88.864L158.287 89.0143H100.829L72.5764 146.976L72.1087 147.953L66.4208 136.293L51.0505 104.743L0.551948 1.12748L0 0H68.8157L97.3954 58.6194L100.838 65.685L104.281 58.61L132.851 0H201.667Z" fill="#9FC7FB"/>
</svg>
